<svg xmlns="http://www.w3.org/2000/svg" width="64" height="64" enable-background="new 0 0 64 64" viewBox="0 0 64 64"><path fill="#F7981D" fill-rule="evenodd" d="M25.9,35.5c-2.4,1.8-5.8,2.7-8.8,2.7c-4.2,0-7.9-1.5-10.7-4.1       c-0.2-0.2,0-0.5,0.2-0.3c3.1,1.8,6.8,2.8,10.7,2.8c2.6,0,5.5-0.5,8.2-1.7C25.9,34.7,26.2,35.2,25.9,35.5z" clip-rule="evenodd"/><path fill="#F7981D" fill-rule="evenodd" d="M25.9,35.5c-2.4,1.8-5.8,2.7-8.8,2.7c-4.2,0-7.9-1.5-10.7-4.1       c-0.2-0.2,0-0.5,0.2-0.3c3.1,1.8,6.8,2.8,10.7,2.8c2.6,0,5.5-0.5,8.2-1.7C25.9,34.7,26.2,35.2,25.9,35.5z" clip-rule="evenodd"/><path fill="#E86E00" fill-rule="evenodd" d="M25.9,34.9c-2.4,1.7-5.8,2.6-8.7,2.6c-3.9,0-7.4-1.4-10.1-3.6      c-0.1-0.1-0.3-0.1-0.4-0.2c-0.3-0.2-0.5,0.1-0.2,0.3c2.8,2.6,6.6,4.1,10.7,4.1c3,0,6.4-0.9,8.8-2.7C26.1,35.3,26.1,35,25.9,34.9      z" clip-rule="evenodd"/><path fill="#F7981D" fill-rule="evenodd" d="M26.8,34.3c-0.3-0.4-2-0.2-2.8-0.1c-0.2,0-0.3-0.2-0.1-0.3       c1.4-1,3.6-0.7,3.8-0.4c0.3,0.3-0.1,2.6-1.3,3.6c-0.2,0.2-0.4,0.1-0.3-0.1C26.5,36.3,27.1,34.7,26.8,34.3z" clip-rule="evenodd"/><path fill="#E86E00" fill-rule="evenodd" d="M27.9,33.6c0.3,0.3-0.1,2.6-1.3,3.6c-0.2,0.2-0.4,0.1-0.3-0.1       c0.3-0.7,0.9-2.3,0.6-2.7" clip-rule="evenodd"/><path fill-rule="evenodd" d="M24.1 27.2v-.9c0-.1.1-.2.2-.2h4.2c.1 0 .2.1.2.2v.8c0 .1-.1.3-.3.6l-2.2 3.1c.8 0 1.6.1 2.4.5.2.1.2.2.2.4v1c0 .1-.1.3-.3.2-1.3-.7-3-.7-4.4 0-.1.1-.3-.1-.3-.2v-.9c0-.1 0-.4.2-.6l2.5-3.6h-2.2C24.2 27.4 24.1 27.3 24.1 27.2zM9 33H7.7c-.1 0-.2-.1-.2-.2v-6.5c0-.1.1-.2.2-.2h1.2c.1 0 .2.1.2.2v.8h0c.3-.8.9-1.2 1.7-1.2.8 0 1.3.4 1.6 1.2.3-.8 1-1.2 1.7-1.2.5 0 1.1.2 1.5.7.4.5.3 1.3.3 2l0 4.1c0 .1-.1.2-.2.2h-1.3c-.1 0-.2-.1-.2-.2v-3.4c0-.3 0-1 0-1.2-.1-.4-.4-.6-.7-.6-.3 0-.6.2-.8.5-.1.3-.1.9-.1 1.2v3.4c0 .1-.1.2-.2.2h-1.3c-.1 0-.2-.1-.2-.2l0-3.4c0-.7.1-1.8-.8-1.8-.9 0-.9 1-.9 1.8l0 3.4C9.2 32.9 9.1 33 9 33zM32.3 25.9c1.9 0 2.9 1.6 2.9 3.7 0 2-1.1 3.6-2.9 3.6-1.8 0-2.8-1.6-2.8-3.6C29.5 27.5 30.5 25.9 32.3 25.9zM32.3 27.2c-.9 0-1 1.3-1 2.1s0 2.5 1 2.5c1 0 1-1.4 1-2.2 0-.5 0-1.2-.2-1.7C33 27.4 32.7 27.2 32.3 27.2zM37.7 33h-1.3c-.1 0-.2-.1-.2-.2l0-6.5c0-.1.1-.2.2-.2h1.2c.1 0 .2.1.2.2v1h0c.4-.9.8-1.3 1.7-1.3.6 0 1.1.2 1.5.8.3.5.3 1.4.3 2v4.1c0 .1-.1.2-.2.2h-1.3c-.1 0-.2-.1-.2-.2v-3.5c0-.7.1-1.7-.8-1.7-.3 0-.6.2-.7.5-.2.4-.2.8-.2 1.2v3.5C37.9 32.9 37.8 33 37.7 33z" clip-rule="evenodd"/><ellipse cx="42.8" cy="32.5" fill="#E86E00" fill-rule="evenodd" clip-rule="evenodd" rx=".6" ry=".6"/><path fill="#F7981D" d="M55.6 33c-.1 0-.2-.1-.2-.2v-6.5c0-.1.1-.2.2-.2H56c.1 0 .2.1.2.2v.9c.3-.7.9-1.3 1.7-1.3l0 0 0 0c.8 0 1.4.6 1.7 1.5.3-.9 1-1.5 1.9-1.5l0 0 0 0c.6 0 1.2.4 1.5 1 .3.6.3 1.3.3 2v3.9c0 .1-.1.2-.2.2h-.6c-.1 0-.2-.1-.2-.2v-3.9c0-.5 0-1-.2-1.4-.2-.4-.6-.7-1-.7-.4 0-.8.3-1.1.8-.3.6-.3 1.1-.3 1.7v3.5c0 .1-.1.2-.2.2h-.6c-.1 0-.2-.1-.2-.2l0-4.2c0-.4 0-.8-.2-1.2-.2-.4-.6-.6-1-.7-.4 0-.8.3-1 .7-.3.5-.4 1-.4 1.6v3.7c0 .1-.1.2-.2.2H55.6zM51.8 33.1c-1.8 0-2.6-1.8-2.6-3.7 0-1.9.9-3.6 2.8-3.6h0H52c1.8 0 2.6 1.8 2.6 3.6C54.6 31.4 53.7 33.1 51.8 33.1L51.8 33.1 51.8 33.1zM51.9 32.2c.6 0 1.1-.4 1.3-1 .2-.5.3-1.2.3-1.8 0-.7-.1-1.3-.4-1.9-.3-.5-.7-.8-1.3-.8-.6 0-1.1.4-1.3 1-.2.5-.3 1.2-.3 1.7 0 .6.1 1.4.3 1.9C50.9 31.9 51.4 32.2 51.9 32.2zM46.1 32.2c.8 0 1.2-.7 1.4-1.5 0-.1.1-.2.2-.2l.5 0c.1 0 .2.1.2.2-.2 1.4-1.1 2.4-2.3 2.4h0 0c-1.8 0-2.6-1.8-2.6-3.6 0-1.8.8-3.6 2.6-3.6h0 0c1.2 0 2.1 1 2.3 2.4 0 .1-.1.2-.2.2l-.6 0c-.1 0-.2-.1-.2-.2-.1-.8-.6-1.4-1.4-1.5-1.2 0-1.6 1.5-1.6 2.7C44.6 30.6 44.9 32.2 46.1 32.2z"/><path fill-rule="evenodd" d="M20.8 29.9c0 .5 0 .9-.2 1.3-.2.4-.5.6-.9.6-.5 0-.8-.4-.8-.9 0-1.1 1-1.3 1.9-1.3V29.9zM22.1 33C22 33 21.9 33 21.8 33c-.4-.3-.5-.5-.7-.8-.7.7-1.2.9-2.1.9-1.1 0-1.9-.7-1.9-2 0-1 .6-1.7 1.3-2.1.7-.3 1.6-.4 2.4-.4v-.2c0-.3 0-.7-.2-.9-.2-.2-.4-.3-.7-.3-.5 0-.9.2-1 .8 0 .1-.1.2-.2.2L17.5 28c-.1 0-.2-.1-.2-.3.3-1.5 1.6-1.9 2.8-1.9.6 0 1.4.2 1.9.6.6.6.6 1.3.6 2.2v2c0 .6.2.9.5 1.2.1.1.1.3 0 .3C22.8 32.3 22.3 32.7 22.1 33L22.1 33zM4.2 29.9c0 .5 0 .9-.2 1.3-.2.4-.5.6-.9.6-.5 0-.8-.4-.8-.9 0-1.1 1-1.3 1.9-1.3V29.9zM5.5 33C5.4 33 5.3 33 5.2 33c-.4-.3-.5-.5-.7-.8-.7.7-1.2.9-2.1.9-1.1 0-1.9-.7-1.9-2 0-1 .6-1.7 1.3-2.1.7-.3 1.6-.4 2.4-.4v-.2c0-.3 0-.7-.2-.9-.2-.2-.5-.3-.7-.3-.5 0-.9.2-1 .8 0 .1-.1.2-.2.2L.9 28c-.1 0-.2-.1-.2-.3.3-1.5 1.6-1.9 2.8-1.9.6 0 1.4.2 1.9.6C6.1 27 6 27.8 6 28.6v2c0 .6.2.9.5 1.2.1.1.1.3 0 .3C6.2 32.3 5.8 32.7 5.5 33L5.5 33z" clip-rule="evenodd"/><g><path fill="#545E60" fill-rule="evenodd" d="M39.6,25.9c-0.9,0-1.4,0.4-1.7,1.3h0v-1c0-0.1-0.1-0.2-0.2-0.2    h-1.2c-0.1,0-0.2,0.1-0.2,0.2l0,2c1.7-0.6,3.2-1.2,4.5-1.9C40.4,26,40,25.9,39.6,25.9z" clip-rule="evenodd"/></g><g><path fill="#545E60" fill-rule="evenodd" d="M32.3,25.9c-1.8,0-2.8,1.6-2.8,3.6c0,0.2,0,0.3,0,0.5    c0.6-0.1,1.2-0.3,1.8-0.4c0-0.1,0-0.2,0-0.3c0-0.8,0.1-2.1,1-2.1c0.4,0,0.7,0.2,0.8,0.6c0.1,0.4,0.2,0.8,0.2,1.2    c0.6-0.2,1.2-0.3,1.8-0.5C34.8,27,33.9,25.9,32.3,25.9z" clip-rule="evenodd"/></g><g><path fill="#545E60" fill-rule="evenodd" d="M28.5,26h-4.2c-0.1,0-0.2,0.1-0.2,0.2v0.9c0,0.1,0.1,0.2,0.2,0.2    h2.2l-2.3,3.4c0.8-0.1,1.5-0.2,2.2-0.3l2-2.9c0.2-0.3,0.3-0.5,0.3-0.6v-0.8C28.8,26.1,28.6,26,28.5,26z" clip-rule="evenodd"/></g><g><path fill="#545E60" fill-rule="evenodd" d="M22,26.5c-0.5-0.5-1.3-0.6-1.9-0.6c-1.2,0-2.5,0.4-2.8,1.9    c0,0.2,0.1,0.2,0.2,0.3l1.2,0.1c0.1,0,0.2-0.1,0.2-0.2c0.1-0.5,0.5-0.8,1-0.8c0.3,0,0.6,0.1,0.7,0.3c0.2,0.3,0.2,0.6,0.2,0.9v0.2    c-0.7,0.1-1.7,0.1-2.4,0.4c-0.8,0.3-1.3,1-1.3,2.1c0.3,0,0.6,0,0.8,0c0.3,0,0.7,0,1,0c0-0.1,0-0.1,0-0.2c0-1.1,1-1.3,1.9-1.3v0.3    c0,0.4,0,0.8-0.2,1.2c0.7,0,1.3-0.1,2-0.1c0-0.1,0-0.2,0-0.3v-2C22.6,27.8,22.6,27,22,26.5z" clip-rule="evenodd"/></g><g><path fill="#545E60" fill-rule="evenodd" d="M14.2,25.9c-0.7,0-1.4,0.4-1.7,1.2c-0.4-0.8-0.9-1.2-1.6-1.2    c-0.8,0-1.4,0.4-1.7,1.2h0v-0.8C9.1,26.1,9,26,8.9,26H7.7c-0.1,0-0.2,0.1-0.2,0.2v3.9c0.6,0.1,1.1,0.2,1.7,0.3v-1.2    c0-0.8,0-1.8,0.9-1.8c0.9,0,0.8,1.1,0.8,1.8l0,1.4c0.6,0.1,1.2,0.1,1.7,0.2v-1.6c0-0.4,0-0.9,0.1-1.2c0.1-0.3,0.4-0.5,0.8-0.5    c0.4,0,0.7,0.1,0.7,0.6c0.1,0.3,0,0.9,0,1.2V31c0.6,0,1.2,0.1,1.7,0.1l0-2.4c0-0.7,0.1-1.5-0.3-2C15.3,26.1,14.7,25.9,14.2,25.9z" clip-rule="evenodd"/></g><g><path fill="#545E60" fill-rule="evenodd" d="M3.5,25.8c-1.2,0-2.5,0.4-2.8,1.9c0,0.2,0.1,0.2,0.2,0.3l1.2,0.1    c0.1,0,0.2-0.1,0.2-0.2c0.1-0.5,0.5-0.8,1-0.8c0.3,0,0.6,0.1,0.7,0.3c0.2,0.3,0.2,0.6,0.2,0.9v0.2C3.6,28.7,2.7,28.7,2,29    c1.3,0.4,2.6,0.7,4,1v-1.3c0-0.8,0.1-1.6-0.6-2.2C5,26,4.2,25.8,3.5,25.8z" clip-rule="evenodd"/></g></svg>