<svg xmlns="http://www.w3.org/2000/svg" width="458.409" height="458.409" viewBox="0 0 458.409 458.409"><path fill="#fff" d="M0,0H458.409V458.409H0Z" data-name="Path 3153"/><path d="M226.667,77.762a13.494,13.494,0,0,1,8.207,3.282,11.216,11.216,0,0,1,2.461,11.82c-5.741,11.817-19.394,19.71-28.724,22.322-5.582,1.313-12.638,1.313-17.727-.656-2.464,1.477-4.542,6.25-7.551,4.266-4.354-3.4-.585-8.723-3.1-12.5-.518-.778-1.824-.835-2.48-2.107-3.448-7.551.82-14.773,5.579-20.517,7.934-8.852,30.7-18.714,43.333-5.91ZM200.241,83.67c-4.433.82-9.439,2.749-12.145,5.91s-4.431,6.238-2.79,9.52c5.746-4.266,8.535-10.176,14.937-13.786C200.241,84.654,201.226,84.162,200.241,83.67ZM227,85.313c-11.327-.987-19.863,7.551-27.906,15.755-.492,1.313-3.446,2.79-1.149,4.266,10.835.985,21.175-2.131,29.054-9.356,2.3-2.133,3.936-4.923,2.792-7.879A5.8,5.8,0,0,0,227,85.313Zm98.15,48.912c5.253,12.8,9.684,32.99,0,45.3-2.626,2.954-7.22,5.677-10.174,3.446-10.835-8.7-15.427-21.173-22.158-32.336-.985-.492-.985.823-1.477,1.315-2.461,11.325,2.133,26.1-5.579,34.959a5.909,5.909,0,0,1-6.73-3.938c-3.777-11.653.159-23.8,1.144-35.454,2.3-5.91,3.284-12.8,8.374-17.235,8.207,3.282,12.145,12.476,16.9,19.206,3.451,5.087,6.238,10.833,10.176,15.427,3.446-1.477,1.75-5.981,1.643-8.7-1.318-10.669-4.271-20.517-7.063-30.693-.159-2.626-1.636-7.058,1.149-8.7C318.751,120.111,321.864,127.823,325.148,134.225Zm-49.568-3.941c0,2.464-1.969,5.541-3.615,5.91-15.755,2.461-33.318.985-48.089,5.907-.492,1.805,1.641,2.133,2.79,2.626,12.635,1.969,25.934,2.461,38.246,5.582,6.509,1.653,8.866,9.358,9.358,15.758.3,5.047-1.639,11.161-6.566,14.609-12.143,7.715-30.69,7.384-43,.331-4.706-2.64-9.192-6.892-9.52-12.145.029-4.171,1.807-7.456,4.761-9.028,11.82-4.761,26.426-2.131,36.605,3.938.652,3.284-2.9,3.106-4.6,4.269-11.327,6.566-19.86-7.382-30.365-2.3-1.477.985-2.545,3.731-.82,4.6,12.966,5.746,27.411,1.641,40.213-1.969,1.477-.492,3.284-1.969,3.446-3.446-.492-5.253-6.4-6.4-10.176-7.877-11.161-2.79-23.47-2.79-35.454-3.938-2.3-.492-5.225-2.093-5.907-3.938-1.313-3.938-1.313-9.356,1.641-12.638,15.263-13.461,38.405-12.309,57.773-8.7,1.315.483,2.792.975,3.287,2.452Zm-71.726,6.238a400.668,400.668,0,0,1,1.969,46.943c-.328,2.131-2.79,2.625-4.431,3.446-2.626.492-6.019-.067-7.058-1.477-3.774-6.076-2.461-14.279-2.79-21.665.492-11.651.328-24.291,3.612-35.126.628-1.574,2.461-2.954,3.938-1.972,3.938,1.972,4.595,5.912,4.759,9.85Zm182.359-2.3c.79,1.327,1.615,3.377,0,4.266-7.387,3.282-17.4,1.805-25.934,2.79-2.3,1.969-4.1,5.251-3.287,8.207.825.492,1.56,1.241,2.466,1.146,5.249.331,13.13-2.461,16.581,2.461.842,1.465-.114,6.935-2.461,7.058-6.4.825-16.935-.8-20.029.825-3.938,2.626-3.612,7.712-5.089,11.82,2.792,1.805,5.715-.043,9.025-.495,6.079-.985,12.809-2.79,18.878-1.477,1.149,2.133,2.792,4.433,1.641,7.058-10.347,8.207-23.694,16.619-37.913,10.669-5.337-2.392-7.715-10.5-5.907-17.394,1.146-4.925,6.233-9.684,3.118-14.937a3.906,3.906,0,0,1,2.792-4.759c5.415,0,4.264-6.73,7.056-9.85-3.118-3.446-10.994-3.282-10.174-10.176,3.777-1.969,8.374-1.313,12.635-1.969,9.684-1.972,20.517-3.12,30.372-1.972C381.944,127.892,384.572,131.764,386.213,134.225ZM151.821,96.8c15.147,12.381,34.8,33.485,32.336,57.776-2.956,19.206-23.309,33.649-40.543,38.246-16.742,4.923-37.751,4.431-54.824.492-1.149,3.12-2.3,6.892-5.907,8.207a7.7,7.7,0,0,1-7.058-1.149c-5.087-4.761-.985-13.953-8.371-16.9C53.008,177.4,37.414,165.413,30.03,150.642c-.985-2.954.164-5.907,1.969-8.2,11.327-9.028,25.606-12.638,39.887-15.43.82.328.492-.82,1.149-1.149.82-9.848,1.149-19.863,4.266-28.726a2.563,2.563,0,0,1,3.612-.82c9.028,6.892,4.759,19.863,8.7,29.216,17.235.82,34.469,1.641,48.092,11.327,4.6,3.774,5.717,10.982,4.266,15.1s-6.236,7.058-10.669,7.382c-2.956,0-8.535.288-8.207-1.967s10.041-5.95,7.058-9.03c-4.288-4.426-25.741-7.058-39.038-8.7-1.641-.328-3.146.164-3.146,1.969-.328,12.474-1.313,26.26.82,38.246a2.94,2.94,0,0,0,1.972,1.967c23.47,3.777,48.256,1.641,66.639-11.817,8.535-6.89,11.327-16.581,9.848-27.247-7.387-29.708-38.408-47.6-63.849-59.091A179.543,179.543,0,0,0,21.823,68.735c-4.678.342-12.091,1.957-12.145,3.612s8.4,1.134,7.384,4.266-9.6,1.272-12.145.492-2.3-4.433-1.641-6.73c6.4-11.325,24.267-12.241,32.336-12.638,44.643-1.151,87.814,15.851,116.21,39.064ZM71.393,140.791c-11.327.164-23.309,1.313-33.813,5.251-2.133.82-4.761,3.118-3.12,5.91,4.266,5.743,10.369,10.459,16.086,13.786s13.3,7.551,20.191,8.538c1.641-10.671,1.641-21.175,1.477-32.172-.659-.328,0-.985-.82-1.313Zm339.272-14.937c-.492,14.279-13.791,23.145-13.791,37.423.492.492.825,1.149,1.477.825,10.673-11.655,21.175-28.234,36.769-33.157,4.109-.328,7.822,3.241,9.358,5.91,5.418,10.833,4.109,26.1-3.444,35.946-7.793,9.667-21.342,19.368-36.764,17.725a210.517,210.517,0,0,0-13.3,49.571c-1.313,3.446-4.428.328-6.4-.328-13.294-10.5-2.378-38.313-1.477-41.861s4.459-11.886,7.061-18.876c-6.238-11.158-2.3-24.621,2.787-34.962a69.716,69.716,0,0,1,15.76-19.04,2.211,2.211,0,0,1,1.962.823ZM437.1,143.581c-1.969-.328-2.792,2.3-4.431,2.792-7.548,8.535-15.1,17.071-18.878,27.247,5.092.656,9.356-2.626,13.791-4.431,7.548-4.761,12.309-12.635,11.817-21.665-.331-1.482-1.643-2.63-2.3-3.943Z" data-name="Path 3154" transform="translate(3.907 79.498)"/></svg>