<?xml version="1.0" encoding="UTF-8"?><svg xmlns="http://www.w3.org/2000/svg" xmlns:xlink="http://www.w3.org/1999/xlink" viewBox="0 0 50 50" version="1.1"><path d="M4.75 19h2.105c-.007 4.184-.015 8.371-.02 12.555-.737.078-1.546.18-2.276.261a429.658 429.658 0 0 1-2.457-7.011c0 2.804-.004 4.53-.004 7.336-.684.086-1.414.18-2.098.277V19h2.02c.91 2.938 1.816 4.785 2.718 7.578L4.75 19zm9.98 2.074c0-.605-.011-1.472-.011-2.074H8.887l-.024 12.379c1.95-.176 3.903-.32 5.856-.434.004-.605.004-1.472.004-2.074-1.27.078-2.485.156-3.754.242.004-1.105.004-2.023.008-3.133.925-.015 1.902-.003 2.847-.02 0-.605.004-1.476.004-2.081-.937.016-1.926.02-2.848.035 0-1.11.004-1.719.008-2.828.578-.008 3.258-.008 3.742-.012zm1.352-.004l2.188.012-.012 9.691c.687-.027 1.422-.046 2.11-.062 0-3.309.003-6.328.007-9.637.727-.004 1.477-.008 2.2-.008l.003-2.054h-6.492c0 .597-.004 1.46-.004 2.058zM29.801 19h-5.856c-.004 3.883-.004 7.77-.004 11.652h.688c.465 0 .937 0 1.398.004v-4.8c.114 0 2.575-.004 2.852 0 0-.59 0-1.47-.004-2.06-.262-.003-2.742 0-2.848 0 0-1.062-.004-1.66-.004-2.718.23 0 3.207 0 3.778.004V19zm3.46 9.773c-.003-3.359.016-6.406.009-9.765h-2.106c.008 3.922-.012 7.844-.008 11.765 1.871.07 3.84.145 5.711.278-.004-.606-.004-1.473-.004-2.074-1.183-.07-2.418-.157-3.601-.204zm5.356 2.403c.688.054 1.395.11 2.082.172 0-4.11.008-8.227 0-12.336h-2.105l.023 12.164zm8.63-5.848c.89-2.105 1.796-4.113 2.722-6.316h-2.301c-.57 1.36-.961 2.234-1.508 3.531a269.94 269.94 0 0 0-1.36-3.531h-2.296c.84 2.05 1.61 4.105 2.465 6.285a462.645 462.645 0 0 1-2.68 6.176c.734.07 1.496.175 2.23.257.528-1.289 1.004-2.285 1.536-3.613.523 1.414 1.004 2.508 1.53 3.965.731.098 1.685.234 2.415.336a366.976 366.976 0 0 0-2.754-7.09z" id="surface1"/><metadata><rdf:RDF xmlns:rdf="http://www.w3.org/1999/02/22-rdf-syntax-ns#" xmlns:rdfs="http://www.w3.org/2000/01/rdf-schema#" xmlns:dc="http://purl.org/dc/elements/1.1/"><rdf:Description about="https://iconscout.com/legal#licenses" dc:title="netflix" dc:description="netflix" dc:publisher="Iconscout" dc:date="2017-12-09" dc:format="image/svg+xml" dc:language="en"><dc:creator><rdf:Bag><rdf:li>Icons8</rdf:li></rdf:Bag></dc:creator></rdf:Description></rdf:RDF></metadata></svg>